<svg width="24" height="24" viewBox="0 0 24 24" fill="none" xmlns="http://www.w3.org/2000/svg">
<path fill-rule="evenodd" clip-rule="evenodd" d="M16.8852 3.08428C17.4196 2.55009 18.1443 2.25 18.9 2.25C19.6559 2.25 20.3808 2.55028 20.9153 3.08478C21.4498 3.61928 21.7501 4.34421 21.7501 5.10011C21.7501 5.85572 21.4501 6.5804 20.9159 7.11484C20.9157 7.11504 20.9161 7.11464 20.9159 7.11484L19.6336 8.40179C19.6046 8.44743 19.5702 8.49063 19.5303 8.53045C19.4912 8.56962 19.4487 8.60355 19.4039 8.63224L12.5313 15.5295C12.3905 15.6707 12.1994 15.7501 12 15.7501H9C8.58579 15.7501 8.25 15.4143 8.25 15.0001V12.0001C8.25 11.8007 8.32939 11.6096 8.47062 11.4688L15.3679 4.59611C15.3966 4.55133 15.4305 4.50894 15.4697 4.46979C15.5095 4.42999 15.5526 4.39559 15.5983 4.36661L16.8852 3.08428C16.8853 3.08412 16.885 3.08445 16.8852 3.08428ZM16.0115 6.07233L9.75 12.3116V14.2501H11.6886L17.9278 7.98856L16.0115 6.07233ZM18.9865 6.92601L17.0741 5.01356L17.9453 4.14544C18.1985 3.89224 18.5419 3.75 18.9 3.75C19.2581 3.75 19.6015 3.89224 19.8547 4.14544C20.1079 4.39863 20.2501 4.74204 20.2501 5.10011C20.2501 5.45818 20.1079 5.80158 19.8547 6.05478L19.8537 6.05572L18.9865 6.92601ZM4.05546 7.05558C4.57118 6.53985 5.27065 6.25012 6 6.25012H7C7.41421 6.25012 7.75 6.58591 7.75 7.00012C7.75 7.41434 7.41421 7.75012 7 7.75012H6C5.66848 7.75012 5.35054 7.88182 5.11612 8.11624C4.8817 8.35066 4.75 8.6686 4.75 9.00012V18.0001C4.75 18.3316 4.8817 18.6496 5.11612 18.884C5.35054 19.1184 5.66848 19.2501 6 19.2501H15C15.3315 19.2501 15.6495 19.1184 15.8839 18.884C16.1183 18.6496 16.25 18.3316 16.25 18.0001V17.0001C16.25 16.5859 16.5858 16.2501 17 16.2501C17.4142 16.2501 17.75 16.5859 17.75 17.0001V18.0001C17.75 18.7295 17.4603 19.4289 16.9445 19.9447C16.4288 20.4604 15.7293 20.7501 15 20.7501H6C5.27065 20.7501 4.57118 20.4604 4.05546 19.9447C3.53973 19.4289 3.25 18.7295 3.25 18.0001V9.00012C3.25 8.27078 3.53973 7.5713 4.05546 7.05558Z" fill="#070E46"/>
</svg>
