<svg width="24" height="24" viewBox="0 0 24 24" fill="none" xmlns="http://www.w3.org/2000/svg">
<path fill-rule="evenodd" clip-rule="evenodd" d="M11.9133 3.21918C13.0665 3.20778 14.2105 3.42363 15.2802 3.85438C15.6645 4.00911 15.8505 4.44602 15.6958 4.83025C15.5411 5.21448 15.1042 5.40053 14.7199 5.24581C13.833 4.88863 12.8843 4.70966 11.9282 4.71911C10.972 4.72855 10.0271 4.92624 9.14731 5.30087C8.26756 5.6755 7.47021 6.21975 6.80079 6.90253C6.13136 7.58531 5.60298 8.39326 5.24581 9.28025C4.52446 11.0716 4.54426 13.0761 5.30087 14.8529C5.90599 16.2739 6.94276 17.4561 8.25009 18.2416V15.0001C8.25009 14.5859 8.58588 14.2501 9.00009 14.2501C9.41431 14.2501 9.75009 14.5859 9.75009 15.0001V19.4331C9.75036 19.4446 9.75036 19.4561 9.75009 19.4676V20.0001C9.75009 20.4143 9.41431 20.7501 9.00009 20.7501H4.0001C3.58588 20.7501 3.2501 20.4143 3.2501 20.0001C3.2501 19.5859 3.58588 19.2501 4.0001 19.2501H7.04529C5.67232 18.3117 4.58254 16.9946 3.92079 15.4406C3.00832 13.2978 2.98443 10.8803 3.85438 8.71994C4.28514 7.65023 4.92237 6.67584 5.7297 5.8524C6.53703 5.02896 7.49864 4.3726 8.55962 3.92079C9.62061 3.46898 10.7602 3.23057 11.9133 3.21918ZM18.3701 6.41016C18.7843 6.41016 19.1201 6.74594 19.1201 7.16016V7.17016C19.1201 7.58437 18.7843 7.92016 18.3701 7.92016C17.9559 7.92016 17.6201 7.58437 17.6201 7.17016V7.16016C17.6201 6.74594 17.9559 6.41016 18.3701 6.41016ZM19.9399 10.2501C20.3542 10.2501 20.6899 10.5859 20.6899 11.0001V11.0101C20.6899 11.4243 20.3542 11.7601 19.9399 11.7601C19.5257 11.7601 19.1899 11.4243 19.1899 11.0101V11.0001C19.1899 10.5859 19.5257 10.2501 19.9399 10.2501ZM19.3701 14.3501C19.7843 14.3501 20.1201 14.6859 20.1201 15.1001V15.1101C20.1201 15.5243 19.7843 15.8601 19.3701 15.8601C18.9559 15.8601 18.6201 15.5243 18.6201 15.1101V15.1001C18.6201 14.6859 18.9559 14.3501 19.3701 14.3501ZM16.8401 17.6201C17.2543 17.6201 17.5901 17.9559 17.5901 18.3701V18.3801C17.5901 18.7943 17.2543 19.1301 16.8401 19.1301C16.4259 19.1301 16.0901 18.7943 16.0901 18.3801V18.3701C16.0901 17.9559 16.4259 17.6201 16.8401 17.6201ZM13 19.1901C13.4142 19.1901 13.75 19.5259 13.75 19.9401V19.9501C13.75 20.3643 13.4142 20.7001 13 20.7001C12.5858 20.7001 12.25 20.3643 12.25 19.9501V19.9401C12.25 19.5259 12.5858 19.1901 13 19.1901Z" fill="#070E46"/>
</svg>
