<svg width="24" height="24" viewBox="0 0 24 24" fill="none" xmlns="http://www.w3.org/2000/svg">
<path d="M17.5195 2.42432C17.7431 2.23801 18.0548 2.19834 18.3184 2.32178C18.5816 2.4453 18.75 2.70964 18.75 3.00049V6.93701C20.4872 7.4708 21.75 9.08831 21.75 11.0005C21.7498 12.9125 20.487 14.5292 18.75 15.063V19.0005C18.7499 19.2913 18.5816 19.5557 18.3184 19.6792C18.0549 19.8026 17.7431 19.7629 17.5195 19.5767L11.7285 14.7505H10.75V20.0005C10.7498 20.4145 10.4141 20.7505 10 20.7505H7C6.58591 20.7505 6.25019 20.4145 6.25 20.0005V14.7505H3C2.58585 14.7505 2.2501 14.4146 2.25 14.0005V8.00049C2.25 7.58627 2.58579 7.25049 3 7.25049H11.7285L17.5195 2.42432ZM7.75 19.2505H9.25V14.7505H7.75V19.2505ZM12.4805 8.57666C12.3457 8.68894 12.1754 8.75049 12 8.75049H10.75V13.2505H12C12.1755 13.2505 12.3457 13.312 12.4805 13.4243L17.25 17.3989V4.60205L12.4805 8.57666ZM18.75 13.4468C19.6395 12.9914 20.2499 12.0684 20.25 11.0005C20.25 9.93234 19.6397 9.00864 18.75 8.55322V13.4468ZM3.75 13.2505H9.25V8.75049H3.75V13.2505Z" fill="black"/>
</svg>
